<svg width="77" height="111" viewBox="0 0 77 111" fill="none" xmlns="http://www.w3.org/2000/svg">
<path d="M14.0656 110.416C11.6128 109.526 10.5617 107.747 10.7234 105.16C10.7773 104.405 10.7234 103.651 10.7234 102.896C10.7773 99.958 12.4484 98.3139 15.3593 98.233C15.8175 98.233 16.2757 98.233 16.8957 98.233C16.8957 97.6939 16.8957 97.2896 16.8957 96.8584C16.9765 94.19 18.4859 92.5189 21.1273 92.3303C21.855 92.2764 22.0707 92.0068 22.2593 91.3869C26.7605 75.8889 31.2886 60.3908 35.8167 44.9197C36.0324 44.165 36.0054 43.7607 35.2238 43.3295C32.8789 42.0088 31.8277 39.2865 32.5285 36.7799C33.2832 34.1654 35.6281 32.3596 38.2425 32.3865C40.857 32.4135 43.121 34.1924 43.8488 36.7799C44.5765 39.3135 43.5253 42.0357 41.1535 43.3564C40.3718 43.7877 40.3449 44.192 40.5605 44.9467C45.0886 60.4447 49.6168 75.9158 54.1449 91.4139C54.2796 91.899 54.3335 92.3033 55.0613 92.3572C58.08 92.6268 59.4546 94.1631 59.5085 97.2088C59.5085 97.5053 59.5355 97.7748 59.5625 98.1791C60.0746 98.2061 60.5597 98.233 61.0449 98.26C63.9558 98.3408 65.6269 99.985 65.6808 102.923C65.7078 103.678 65.6539 104.432 65.6808 105.187C65.8425 107.774 64.7914 109.553 62.3386 110.443C60.2632 110.443 58.1609 110.443 56.0855 110.443C55.2769 109.958 54.7378 109.311 55.0613 108.313C55.3847 107.343 56.2203 107.154 57.1636 107.181C58.4574 107.208 59.7511 107.181 61.0449 107.181C61.9343 107.181 62.3925 106.804 62.3656 105.888C62.3656 105.106 62.3656 104.297 62.3656 103.516C62.3656 101.656 62.2847 101.575 60.398 101.575C45.6007 101.575 30.7765 101.575 15.9793 101.575C15.7636 101.575 15.548 101.575 15.3324 101.575C14.3621 101.521 13.9578 102.006 13.9847 102.95C14.0117 103.731 13.9847 104.54 13.9847 105.322C13.9847 107.02 14.1464 107.181 15.8445 107.181C27.1648 107.181 38.4851 107.181 49.8054 107.181C50.7218 107.181 51.5843 107.262 51.9617 108.233C52.339 109.203 51.8269 109.877 51.1261 110.443C38.7816 110.416 26.4371 110.416 14.0656 110.416ZM50.9644 92.1686C50.641 91.0096 50.3445 89.8236 49.9402 88.6916C49.7515 88.1795 49.4281 87.6674 48.9968 87.3439C45.6546 84.8643 42.2585 82.4385 38.9164 79.9588C38.4042 79.5814 38.0539 79.5545 37.5148 79.9318C34.1457 82.4385 30.7226 84.8912 27.3535 87.3709C27.0839 87.5865 26.7605 87.8291 26.6527 88.1525C26.2214 89.4732 25.871 90.8209 25.4398 92.2494C29.2132 92.492 30.5339 94.6752 30.2644 98.1522C35.6281 98.1522 40.857 98.1522 46.1128 98.1522C46.4632 93.6779 46.9214 93.1119 50.9644 92.1686ZM43.9566 71.199C41.989 69.474 40.1023 67.8299 38.1886 66.1588C36.248 67.8568 34.3882 69.501 32.4476 71.199C34.3074 72.5467 36.0054 73.7865 37.7304 74.9994C37.946 75.1342 38.3773 75.1881 38.566 75.0803C40.3449 73.8404 42.0968 72.5467 43.9566 71.199ZM38.2156 61.7654C39.105 60.9838 39.8597 60.283 40.6683 59.6361C41.1535 59.2318 41.2613 58.8815 41.0726 58.2615C40.2101 55.3775 39.3746 52.4936 38.539 49.6096C38.4582 49.367 38.3503 49.1244 38.1347 48.6123C37.1105 52.1432 36.1402 55.3775 35.2238 58.6389C35.1699 58.8545 35.3046 59.2049 35.4664 59.3666C36.3558 60.1752 37.2722 60.9299 38.2156 61.7654ZM35.4125 77.4252C33.7953 76.2393 32.3128 75.1611 30.7496 74.0291C29.914 76.9131 29.1054 79.6354 28.2429 82.6271C30.7226 80.8213 33.0136 79.1772 35.4125 77.4252ZM41.0187 77.4252C43.4445 79.1772 45.7085 80.8213 48.1882 82.6541C47.2988 79.6354 46.5171 76.8861 45.6816 74.0561C44.1183 75.1881 42.6359 76.2393 41.0187 77.4252ZM40.8031 38.3162C40.8031 36.9147 39.5902 35.6748 38.2156 35.7018C36.8679 35.7018 35.682 36.8877 35.6281 38.2354C35.6011 39.6369 36.7871 40.8768 38.1617 40.9037C39.5363 40.9307 40.7761 39.6908 40.8031 38.3162ZM26.9761 98.233C26.9761 97.5861 27.057 97.101 26.9492 96.6697C26.8414 96.3193 26.5179 95.7533 26.2484 95.7533C24.4695 95.6725 22.6906 95.5916 20.9117 95.7533C19.9683 95.8342 20.1839 96.8584 20.2378 97.5322C20.2378 97.7748 20.5882 98.2061 20.7769 98.2061C22.7984 98.26 24.8468 98.233 26.9761 98.233ZM49.455 98.233C51.6113 98.233 53.6328 98.233 55.6543 98.233C55.816 98.233 56.1125 98.1252 56.1125 98.0443C56.1394 97.4514 56.2472 96.8045 56.0585 96.2654C55.9507 95.9689 55.3578 95.6725 54.9804 95.6455C53.5519 95.5646 52.1234 95.6186 50.6949 95.6186C49.8863 95.6186 49.4281 96.0229 49.455 96.8854C49.455 97.2896 49.455 97.667 49.455 98.233ZM34.0917 62.5471C33.7144 63.8678 33.391 64.9459 32.9867 66.3475C34.0109 65.4311 34.8195 64.7303 35.682 63.9756C35.1699 63.4904 34.7117 63.0861 34.0917 62.5471ZM43.2019 66.1318C43.2558 66.0779 43.3097 66.051 43.3367 65.9971C43.0132 64.892 42.6628 63.7869 42.3125 62.5471C41.7195 63.0592 41.2613 63.4904 40.7222 63.9486C41.6117 64.7303 42.4203 65.4311 43.2019 66.1318Z" fill="#EDF0FF"/>
<path d="M41.45 0.015625C43.8488 0.500781 46.2476 0.851172 48.5926 1.47109C53.2015 2.68398 57.3254 4.92109 61.0988 7.77813C62.0152 8.47891 62.2308 9.42227 61.6918 10.2039C61.1258 11.0125 60.1015 11.1203 59.1312 10.3926C56.1125 8.15547 52.8781 6.2957 49.2933 5.13672C38.4312 1.60586 28.189 3.14219 18.7554 9.42227C10.4 15.0016 5.57536 22.9258 4.03904 32.8715C1.80193 47.4531 9.78005 62.5469 23.0949 68.8269C23.5801 69.0695 24.0652 69.2582 24.5504 69.5277C25.6015 70.0668 25.9789 70.9293 25.5476 71.8187C25.1164 72.7082 24.2 73.0586 23.1488 72.4926C20.723 71.1719 18.1894 69.9859 15.9793 68.3688C7.46208 62.1426 2.3949 53.7063 0.777709 43.2754C-1.75588 26.807 7.08474 10.5543 22.2324 3.62734C26.2754 1.76758 30.507 0.554687 34.9543 0.177343C35.1699 0.15039 35.3586 0.0695313 35.5742 0.015625C37.5687 0.015625 39.5093 0.015625 41.45 0.015625Z" fill="#EDF0FF"/>
<path d="M10.9121 38.3969C11.0469 24.7317 20.0223 13.7079 32.7441 11.0395C46.7867 8.10163 60.9371 16.9153 64.5758 30.904C67.8102 43.3563 62.0422 56.2399 50.6141 62.0887C49.3203 62.7356 48.4039 62.6009 47.8918 61.6575C47.3797 60.7141 47.757 59.8516 49.0508 59.1778C53.9023 56.6442 57.4871 52.9247 59.859 47.9923C66.3008 34.6505 58.7 18.2899 44.334 14.5973C30.6418 11.0934 17.0844 19.6915 14.5777 33.5184C12.718 43.6798 17.7582 54.0567 26.8684 58.9352C27.1918 59.0969 27.5152 59.2587 27.8117 59.4473C28.6742 60.0133 28.9168 60.8759 28.4855 61.6575C28.0543 62.4391 27.1109 62.7895 26.2484 62.2774C24.227 61.0376 22.1246 59.8786 20.3457 58.3423C14.1465 53.0055 11.0738 46.0516 10.9121 38.3969Z" fill="#EDF0FF"/>
<path d="M54.8726 37.588C54.7379 43.2751 52.5277 47.6685 48.35 51.0376C47.9187 51.388 47.4066 51.6845 46.8675 51.9271C46.0859 52.2505 45.3582 52.0888 44.9 51.3341C44.4418 50.6064 44.5496 49.8517 45.1695 49.2857C45.8433 48.6927 46.598 48.2076 47.2449 47.5876C51.2879 43.7603 52.6086 38.0732 50.614 32.9791C48.6464 27.9658 43.8218 24.6236 38.3234 24.4888C32.6633 24.3541 27.3804 28.1275 25.5207 33.6259C23.7148 38.9626 25.6285 45.1349 30.1297 48.4501C30.48 48.6927 30.8304 48.9353 31.1539 49.2318C31.8277 49.8787 31.9355 50.7681 31.3965 51.4689C30.8843 52.1427 29.8871 52.3044 29.0785 51.7654C26.6797 50.1751 24.739 48.1267 23.4183 45.5123C17.9199 34.4884 25.1433 21.9822 37.4339 21.2005C45.6277 20.6884 53.498 27.1033 54.5761 35.2162C54.7379 36.0787 54.8187 36.9951 54.8726 37.588Z" fill="#EDF0FF"/>
<path d="M76.0039 37.6694C76.1656 52.6014 67.1632 66.4284 53.3632 72.4389C52.2043 72.951 51.3148 72.7084 50.8566 71.792C50.3984 70.8217 50.7757 69.9862 52.0156 69.4202C57.0828 67.1561 61.4222 63.9217 64.9261 59.6092C69.2656 54.2725 71.8261 48.208 72.473 41.3889C73.4433 31.3893 70.5863 22.6026 64.0367 15.0018C63.7671 14.7053 63.5246 14.4088 63.282 14.0854C62.7429 13.3038 62.8507 12.4143 63.5246 11.8752C64.3062 11.2553 65.1148 11.3362 65.7617 12.01C66.6242 12.9264 67.4597 13.8698 68.2144 14.867C73.3355 21.6592 75.8961 29.233 76.0039 37.6694Z" fill="#EDF0FF"/>
</svg>
