<svg width="102" height="102" viewBox="0 0 102 102" fill="none" xmlns="http://www.w3.org/2000/svg">
<path d="M59.7891 1.66409C55.6094 0.960968 50.9415 0.531281 46.7032 1.07816C40.6485 1.87894 34.8673 3.05081 29.3204 5.72659C10.5509 14.8282 0.101635 34.0078 1.00007 54.5156C1.31257 61.4688 3.59773 68.2852 6.7032 74.4375C7.87507 76.7617 10.2384 79.0664 11.0391 81.4688C11.3126 82.3086 10.6094 83.3633 10.4532 84.2031C10.1602 85.7852 10.3165 87.6211 11.0196 89.086C12.5235 92.2891 16.3321 93.9102 19.7501 93.0313C24.8282 91.7422 26.8985 85.4531 23.8907 81.2735C22.5235 79.3594 20.2969 78.3438 17.9923 78.2656C16.879 78.2266 15.043 79.125 14.1837 78.3047C11.3712 75.6094 9.49617 70.9805 8.14851 67.4063C3.85163 56.0977 4.00788 43.3242 9.06648 32.25C14.8282 19.6914 26.586 9.28128 40.2579 6.31253C45.629 5.14066 51.1954 4.63284 56.6641 5.37503C58.3829 5.6094 61.5274 6.87894 62.7188 5.08206C64.1446 2.89456 61.3907 1.93753 59.7891 1.66409ZM16.8204 82.543C21.0782 81.5078 22.9727 87.9531 18.7735 88.9688C14.5548 90.0039 12.6212 83.5781 16.8204 82.543Z" fill="#EDF0FF"/>
<path d="M100.766 45.5313C100.004 39.1642 98.1485 33.2852 95.2774 27.5626C94.1055 25.2384 91.7422 22.9337 90.9414 20.5313C90.5117 19.2618 91.7227 16.7813 91.6055 15.2579C91.2735 10.7657 86.6446 8.01181 82.4453 8.91024C76.9571 10.0821 74.8868 17.211 78.5782 21.3126C80.0235 22.9337 82.2305 23.8126 84.3985 23.7345C85.2383 23.6954 86.5274 23.129 87.3086 23.3634C89.0469 23.9102 90.7461 27.9923 91.5664 29.5157C104.086 52.6602 93.4805 82.0548 69.75 92.9337C64.9258 95.1407 59.4375 96.6642 54.125 96.8985C50.3555 97.0548 46.7227 96.3712 42.9922 96.3321C40.1992 96.2931 39.5547 99.8282 42.4063 100.395C45.5117 101.02 48.6367 101.02 51.7813 101.02C80.8047 101 104.223 74.2813 100.766 45.5313ZM85.1797 19.4571C80.9219 20.4923 79.0274 14.047 83.2266 13.0313C87.4453 11.9962 89.3789 18.422 85.1797 19.4571ZM68.5782 4.43759C66 4.86727 66.7813 8.81259 69.3594 8.3829C71.9375 7.93368 71.1172 4.0079 68.5782 4.43759Z" fill="#EDF0FF"/>
<path d="M71.6445 51.4296C70.8633 50.5898 69.6328 50.4921 68.5781 50.2187C71.7031 46.6054 73.3633 41.9179 72.7383 37.1327C72.5625 35.8241 72.543 33.9101 71.4492 32.9921C68.793 30.8241 63.5391 31.9569 60.5703 32.6405C60.8438 26.4687 60.6289 21.2734 55.8828 16.6249C54.6914 15.453 52.9531 13.7538 51.1953 13.6171C49.2422 13.4609 47.1719 15.5702 45.9219 16.8202C42.0742 20.6679 39.8086 27.289 41.625 32.6405C38.3828 32.1523 33.7735 30.8241 30.7266 32.8749C29.457 33.7343 29.4375 35.7655 29.2617 37.1327C28.6367 41.9179 30.2969 46.6054 33.4219 50.2187C32.3672 50.4921 31.1367 50.5898 30.3555 51.4296C29.5547 52.289 29.418 53.7929 29.3203 54.9062C29.086 57.6601 29.1641 60.2773 30.1016 62.914C32.6406 69.9257 41.1758 75.9218 48.8516 73.6562C48.8516 77.5624 48.8125 81.4687 48.8516 85.3749C48.8711 86.8202 49.3985 88.539 51.1953 88.3632C53.1485 88.1874 52.9531 86.2343 52.9531 84.789V73.6562C60.375 75.414 68.6172 70.8241 71.5078 63.8905C72.6992 61.0194 72.9727 58.1679 72.6992 55.1015C72.582 53.9296 72.5039 52.328 71.6445 51.4296ZM64.4766 36.039C65.4336 35.9023 67.4453 35.6874 68.2656 36.3515C69.711 37.5234 68.5 41.996 67.9531 43.3827C66.293 47.5819 62.4258 51.0585 57.836 51.5468C56.8008 51.664 54.3203 52.0351 53.5195 51.2148C53.0117 50.7069 53.1485 49.6913 53.1485 49.0468C53.1485 47.0937 53.3438 45.1796 54.1836 43.3827C56.1172 39.2812 60.082 36.6835 64.4766 36.039ZM47.875 69.7108C42.4258 70.9218 36.8399 67.2694 34.457 62.5234C33.3633 60.3359 31.7813 54.6718 35.1797 54.203C40.3945 53.4999 45.7852 57.0546 47.875 61.7421C48.7149 63.6366 48.8711 65.5507 48.8516 67.6015C48.8516 68.4608 48.8906 69.4765 47.875 69.7108ZM47.875 51.5273C42.4844 52.7382 36.7422 49.1444 34.4766 44.3593C33.5195 42.3476 31.7422 36.4882 35.0039 36.039C40.1797 35.3163 45.707 38.6757 47.8164 43.3827C48.6758 45.3163 48.8906 47.1523 48.8711 49.2421C48.8516 50.1405 48.9492 51.2734 47.875 51.5273ZM51.3906 39.0468C49.418 39.7304 46.9961 35.4335 46.3516 34.0077C44.5156 29.9843 44.9844 24.9257 47.5235 21.3124C48.2266 20.2968 49.3985 18.7734 50.6094 18.3632C52.6211 17.6991 55.0625 21.996 55.707 23.4609C57.4844 27.5038 57.0156 32.3085 54.5547 35.9609C53.832 37.0546 52.6992 38.5976 51.3906 39.0468ZM67.6211 62.328C65.6094 66.8007 61.2539 69.5155 56.4688 69.9062C55.7266 69.9648 54.0664 69.9648 53.5195 69.3984C52.0742 67.8944 53.5 63.3241 54.1836 61.7226C56.1172 57.2304 60.2188 54.828 64.8867 54.1835C65.7656 54.0663 67.543 53.9296 68.2852 54.5351C68.7344 54.9062 68.7344 55.9218 68.7735 56.4491C68.8906 58.4609 68.4414 60.5116 67.6211 62.328Z" fill="#EDF0FF"/>
<path d="M32.4452 93.7149C29.9452 94.5157 31.3905 98.461 33.8124 97.543C36.2733 96.6055 34.9452 92.9141 32.4452 93.7149Z" fill="#EDF0FF"/>
</svg>
