<svg width="114" height="115" viewBox="0 0 114 115" fill="none" xmlns="http://www.w3.org/2000/svg">
<path d="M18.8298 79.5423C17.5235 76.1876 16.2767 73.0704 15.0892 69.9235C14.8517 69.3001 14.4954 69.3001 13.9907 69.3001C10.1313 69.3001 6.27197 69.3001 2.4126 69.3001C0.690723 69.3001 0.334473 68.9438 0.334473 67.222C0.334473 60.8392 0.334473 54.4564 0.334473 48.0735C0.334473 46.411 0.720411 46.0548 2.35322 46.0251C6.2126 46.0251 10.072 46.0251 13.9313 45.9954C14.3173 45.9954 14.8813 45.7282 15.0298 45.4313C16.3063 42.2845 17.5235 39.1079 18.8298 35.7532C17.4642 34.3876 15.8907 32.8142 14.3173 31.2407C12.8923 29.8157 11.4673 28.4204 10.072 26.9954C9.12197 26.0454 9.12197 25.3626 10.0423 24.4423C14.6438 19.811 19.2751 15.2095 23.9063 10.5782C24.9157 9.56885 25.5392 9.56885 26.5485 10.5782C29.2204 13.2501 31.8923 15.922 34.5642 18.5938C34.861 18.8907 35.0985 19.2173 35.3657 19.5438C36.7313 18.8907 37.9188 18.2079 39.1657 17.7032C40.947 16.961 42.7579 16.3079 44.5688 15.7142C45.2813 15.4767 45.5485 15.2095 45.5485 14.4079C45.4892 10.5188 45.5189 6.62979 45.5189 2.71104C45.5189 1.22666 45.9345 0.811035 47.4485 0.811035C53.9501 0.811035 60.422 0.811035 66.9235 0.811035C68.3485 0.811035 68.7642 1.25635 68.7642 2.68135C68.7642 6.57041 68.7938 10.4595 68.7345 14.3782C68.7345 15.1501 69.0017 15.4173 69.6845 15.6845C72.7423 16.8126 75.7407 18.0595 78.947 19.3063C79.036 19.2173 79.3329 18.9501 79.6001 18.6829C82.272 16.011 84.9438 13.3392 87.6454 10.6673C88.7438 9.56885 89.3673 9.53916 90.436 10.6376C95.0079 15.2095 99.5798 19.7517 104.122 24.3235C105.161 25.3626 105.161 26.0157 104.122 27.0548C101.153 30.0235 98.1845 32.9626 95.4235 35.7235C96.7298 39.1079 97.947 42.3142 99.2532 45.5204C99.372 45.7876 99.936 45.9954 100.292 45.9954C104.152 46.0251 108.011 46.0251 111.87 46.0251C113.533 46.0251 113.919 46.411 113.919 48.0439C113.919 54.4564 113.919 60.8689 113.919 67.311C113.919 68.8845 113.503 69.3001 111.959 69.3001C108.1 69.3001 104.241 69.3298 100.381 69.2704C99.6095 69.2704 99.3126 69.5376 99.0751 70.2204C97.947 73.2782 96.7298 76.2767 95.4532 79.4829C95.5126 79.572 95.7798 79.8689 96.0767 80.136C98.7782 82.8376 101.48 85.5392 104.181 88.2407C105.191 89.2501 105.191 89.9032 104.211 90.8829C99.6095 95.5142 94.9782 100.116 90.347 104.747C89.397 105.697 88.7438 105.667 87.7938 104.717C85.0923 102.016 82.3907 99.3142 79.6892 96.6126C79.3923 96.3157 79.2142 95.9595 79.1548 95.9001C75.6517 97.2657 72.4454 98.4829 69.2688 99.7892C69.0017 99.9079 68.7938 100.472 68.7938 100.828C68.7642 104.658 68.7642 108.458 68.7642 112.288C68.7642 114.099 68.4376 114.455 66.6563 114.455C60.3032 114.455 53.9798 114.455 47.6267 114.455C45.8751 114.455 45.5189 114.099 45.5189 112.377C45.5189 108.517 45.5189 104.658 45.5189 100.799C45.5189 100.175 45.4001 99.8485 44.7173 99.5814C41.6298 98.4532 38.572 97.236 35.3063 95.9595C35.247 95.9892 34.9501 96.2564 34.6829 96.5532C32.011 99.2251 29.3392 101.897 26.6673 104.569C25.5095 105.727 24.9157 105.727 23.7876 104.569C19.2454 100.027 14.7032 95.4845 10.161 90.9423C9.0626 89.8439 9.0626 89.2501 10.161 88.1517C13.1001 85.2423 16.0392 82.3032 18.8298 79.5423ZM111.158 48.786C107.002 48.786 102.934 48.7564 98.897 48.8157C97.7392 48.8157 97.1157 48.4001 96.8188 47.272C95.9282 43.6204 94.4735 40.1767 92.5438 36.9407C91.9501 35.9314 92.0688 35.1892 92.9001 34.3876C95.5126 31.8048 98.0954 29.1923 100.708 26.6095C100.975 26.3423 101.242 26.0454 101.42 25.8673C97.2345 21.6814 93.1079 17.5845 88.9517 13.4579C88.7735 13.636 88.4767 13.9032 88.1798 14.2001C85.5673 16.7829 82.9845 19.3954 80.4017 22.0079C79.6298 22.7798 78.9173 22.9282 77.9376 22.3345C74.7017 20.4048 71.2579 18.9501 67.6063 18.0298C66.5079 17.7626 66.0032 17.1688 66.0329 15.9813C66.0923 12.2704 66.0626 8.55947 66.0626 4.84854C66.0626 4.4626 66.0329 4.07666 66.0032 3.69072C60.0657 3.69072 54.247 3.69072 48.3392 3.69072C48.3392 4.16572 48.3392 4.58135 48.3392 4.96729C48.3392 8.64854 48.3095 12.3298 48.3688 15.9813C48.3985 17.1688 47.8938 17.7626 46.7954 18.0298C43.1735 18.9204 39.7595 20.3454 36.5532 22.2751C35.5142 22.8985 34.7423 22.7501 33.911 21.8892C31.3579 19.247 28.7157 16.6939 26.1329 14.0814C25.8657 13.8142 25.5688 13.547 25.4798 13.4876C21.2642 17.7032 17.1673 21.8001 12.922 26.0751C13.1001 26.2235 13.486 26.4314 13.7532 26.6985C16.336 29.2517 18.8892 31.8642 21.472 34.3876C22.3032 35.1892 22.422 35.9314 21.7985 36.9407C19.8985 40.147 18.4735 43.561 17.5235 47.1532C17.1673 48.5782 16.8407 48.786 15.3267 48.786C11.7048 48.786 8.05322 48.786 4.43135 48.786C4.04541 48.786 3.62979 48.786 3.24385 48.786C3.24385 54.7829 3.24385 60.6017 3.24385 66.5095C7.37041 66.5095 11.4079 66.5392 15.4751 66.4798C16.6329 66.4798 17.2563 66.8954 17.5532 68.0235C18.4735 71.6751 19.8985 75.1188 21.8282 78.3548C22.422 79.3642 22.3032 80.1064 21.472 80.9079C18.8595 83.4907 16.2767 86.1032 13.6642 88.686C13.397 88.9532 13.1298 89.2501 12.9813 89.3985C17.1673 93.5845 21.2642 97.711 25.4204 101.867C25.6282 101.689 25.9251 101.422 26.1923 101.125C28.7751 98.5423 31.3579 96.0189 33.8813 93.4064C34.7126 92.5454 35.4845 92.4267 36.5235 93.0501C39.7298 94.9798 43.1438 96.3751 46.7657 97.2657C47.8642 97.5329 48.3392 98.1267 48.3392 99.3142C48.2798 103.025 48.3095 106.736 48.3095 110.447C48.3095 110.833 48.3392 111.219 48.3688 111.605C54.3063 111.605 60.1251 111.605 66.0329 111.605C66.0329 111.13 66.0329 110.744 66.0329 110.328C66.0329 106.706 66.0329 103.055 66.0329 99.4329C66.0329 97.9485 66.2704 97.6517 67.7251 97.2657C71.2579 96.3454 74.6126 94.9501 77.7595 93.1095C79.1251 92.3079 79.422 92.3673 80.5501 93.4954C83.1329 96.0782 85.686 98.6314 88.2688 101.214C88.536 101.481 88.8329 101.749 88.8923 101.808C93.1079 97.622 97.2048 93.5251 101.45 89.2798C101.272 89.1314 100.916 88.8939 100.619 88.6267C98.0063 86.0439 95.4235 83.4314 92.811 80.8485C92.0688 80.1064 91.9501 79.3939 92.4845 78.4735C94.4438 75.2079 95.8985 71.7345 96.8188 68.0532C97.086 66.9251 97.7392 66.5095 98.897 66.5095C102.578 66.5689 106.23 66.5392 109.911 66.5392C110.297 66.5392 110.713 66.5392 111.128 66.5392C111.158 60.5423 111.158 54.7235 111.158 48.786Z" fill="#EDF0FF"/>
<path d="M28.8345 57.6627C28.8345 42.0768 41.5407 29.3408 57.1267 29.3408C72.7126 29.3408 85.4485 42.0768 85.4485 57.6627C85.4485 73.2486 72.6829 85.9549 57.097 85.9252C41.5704 85.9252 28.8642 73.1893 28.8345 57.6627ZM57.186 32.1314C43.2329 32.0424 31.6845 43.5314 31.6251 57.5736C31.5657 71.5564 42.9954 83.0158 57.097 83.1049C71.0501 83.1939 82.5985 71.7049 82.6579 57.6627C82.7173 43.6799 71.2876 32.2205 57.186 32.1314Z" fill="#EDF0FF"/>
<path d="M53.683 61.2253C51.872 61.2253 50.1205 61.2253 48.3986 61.2253C47.6267 61.2253 46.7361 61.2253 46.558 60.3644C46.4392 59.8003 46.6767 58.9691 47.033 58.4644C51.2486 52.8238 55.4939 47.2128 59.7986 41.6613C60.1549 41.1863 60.9564 40.7706 61.4908 40.8003C62.4111 40.8597 62.6486 41.691 62.5299 42.5816C62.1142 45.4019 61.6986 48.2222 61.283 51.0425C61.1049 52.2597 60.9267 53.4472 60.7189 54.8722C61.6392 54.8722 62.4705 54.8722 63.3017 54.8722C64.3705 54.8722 65.4689 54.8425 66.5377 54.9019C67.7846 54.991 68.2892 56.0894 67.6361 57.1284C67.4877 57.3363 67.3392 57.5441 67.1611 57.7519C62.9455 63.0066 58.7299 68.291 54.5142 73.5456C54.3955 73.6941 54.2767 73.8425 54.158 73.9613C53.683 74.5253 53.0002 74.8816 52.4064 74.3472C51.9908 73.9909 51.6049 73.2191 51.6939 72.7144C52.1986 69.3894 52.8517 66.0941 53.4752 62.7691C53.5346 62.2941 53.5939 61.8191 53.683 61.2253ZM50.5658 58.4347C52.0502 58.4347 53.2377 58.4347 54.4549 58.4347C56.6221 58.4347 57.0377 58.9394 56.6221 61.0472C56.2064 63.2441 55.8205 65.441 55.4346 67.6378C55.4939 67.6675 55.5533 67.6972 55.6127 67.6972C58.2252 64.4316 60.8674 61.1363 63.5096 57.8113C63.2424 57.7222 63.183 57.6925 63.1236 57.6925C61.9658 57.6925 60.8377 57.6925 59.6799 57.6925C58.1064 57.6925 57.6017 57.1581 57.8096 55.5847C57.958 54.3081 58.1955 53.0316 58.3736 51.7253C58.5517 50.4488 58.7299 49.1722 58.908 47.866C58.8189 47.8363 58.7299 47.8066 58.6705 47.7769C56.0283 51.2503 53.3861 54.7238 50.5658 58.4347Z" fill="#EDF0FF"/>
</svg>
