<svg width="201" height="52" viewBox="0 0 201 52" fill="none" xmlns="http://www.w3.org/2000/svg">
<path d="M41.6694 9.35304L27.342 1.15048C26.0228 0.397055 24.5271 0.000488281 23.0047 0.000488281C21.4822 0.000488281 19.9865 0.397055 18.6673 1.15048L4.33485 9.35304C3.01454 10.1065 1.91834 11.1923 1.15715 12.5007C0.395963 13.809 -0.0032081 15.2935 1.94178e-05 16.804V33.2091C-0.00231162 34.7187 0.397284 36.2021 1.15843 37.5095C1.91957 38.8169 3.01529 39.9019 4.33485 40.6549L18.6673 48.8625C19.9865 49.616 21.4822 50.0125 23.0047 50.0125C24.5271 50.0125 26.0228 49.616 27.342 48.8625L41.6694 40.6549C42.9899 39.9026 44.0866 38.8178 44.8487 37.5104C45.6108 36.2029 46.0111 34.7191 46.0093 33.2091V16.804C46.012 15.293 45.6121 13.8082 44.85 12.4998C44.0879 11.1914 42.9907 10.1058 41.6694 9.35304ZM21.776 10.7504C25.3374 10.7504 29.5349 12.057 31.7023 14.8971L27.9831 17.8078C26.5585 15.8505 23.9688 15.003 21.7709 15.003C20.1552 14.9612 18.5577 15.3495 17.1448 16.1276C15.7319 16.9057 14.5552 18.0451 13.7372 19.4272H7.92178C10.018 13.984 15.3042 10.7504 21.776 10.7504ZM21.5317 39.2576C15.0702 39.2576 10.0231 35.9029 7.9523 30.5859H13.6914C15.2635 33.2948 18.011 34.9343 21.5775 34.9343C22.8595 34.9744 24.1324 34.709 25.2895 34.1604C26.4466 33.6118 27.454 32.796 28.2273 31.7814L32.1297 34.5005C29.7333 37.497 26.1769 39.2576 21.5317 39.2576ZM38.3216 27.4582C37.9123 28.0653 37.3583 28.563 36.7087 28.907C36.059 29.2511 35.3338 29.431 34.5973 29.4307C33.7549 29.4293 32.93 29.1917 32.2179 28.7454C31.5058 28.2991 30.9355 27.6622 30.5728 26.9083H6.92965V23.1249H30.5983C30.9504 22.3622 31.5222 21.7198 32.2416 21.2785C33.1053 20.7339 34.1315 20.5003 35.1483 20.6168C36.165 20.7333 37.1105 21.1928 37.8261 21.9184C38.5418 22.6439 38.9841 23.5913 39.0789 24.6018C39.1738 25.6122 38.9154 26.6243 38.347 27.4683L38.3216 27.4582Z" fill="#0A2494"/>
<path d="M67.4901 19.3717C62.0969 19.3717 58.0674 15.6437 58.0674 10.1956C58.0674 4.64646 62.2241 1.06982 67.5664 1.06982C70.0187 1.06982 72.6542 1.95263 74.1246 3.6224L71.2551 6.46757C70.8269 5.94609 70.2821 5.53057 69.664 5.25389C69.0459 4.97722 68.3713 4.84697 67.6936 4.87347C64.7528 4.87347 62.6464 7.12842 62.6464 10.1956C62.6464 13.3636 64.6816 15.5176 67.6223 15.5176C68.3382 15.5405 69.049 15.3919 69.6946 15.0846C70.3403 14.7772 70.9017 14.3201 71.3314 13.752L74.2823 16.5013C72.756 18.267 70.4359 19.3717 67.4901 19.3717Z" fill="#0A0A0A"/>
<path d="M81.9142 20.7438C80.8967 23.2964 79.5891 24.7795 76.4957 24.7795C75.7449 24.7716 74.9974 24.6803 74.2672 24.5071L74.7149 21.1221C75.1387 21.2542 75.5786 21.3288 76.0225 21.3441C77.2843 21.3441 77.7066 20.7539 78.1034 19.6995L78.5003 18.6906L73.3311 6.68945H77.844L80.5914 14.5389H80.6677L83.115 6.68945H87.4193L81.9142 20.7438Z" fill="#0A0A0A"/>
<path d="M96.3432 19.2505C94.71 19.2505 93.1023 18.5392 92.3086 17.3083H92.2577V18.9075H88.5283V0.358398H92.5986V7.99092H92.6495C93.1167 7.4608 93.6956 7.03879 94.3452 6.75464C94.9949 6.47049 95.6995 6.33112 96.4094 6.34637C100.001 6.34637 102.225 9.33783 102.225 12.748C102.225 16.1582 100.052 19.2505 96.3432 19.2505ZM95.3765 9.63042C94.9725 9.64081 94.5746 9.73064 94.2059 9.8947C93.8371 10.0588 93.5049 10.2938 93.2285 10.5862C92.9521 10.8785 92.737 11.2224 92.5957 11.5978C92.4543 11.9733 92.3896 12.3728 92.4052 12.7732C92.3903 13.1732 92.4555 13.5722 92.5972 13.9471C92.7388 14.3219 92.954 14.6652 93.2304 14.957C93.5067 15.2488 93.8387 15.4834 94.2071 15.6472C94.5755 15.8109 94.973 15.9006 95.3765 15.911C97.3048 15.911 98.297 14.3421 98.297 12.748C98.297 11.1539 97.3048 9.63042 95.3765 9.63042Z" fill="#0A0A0A"/>
<path d="M104.112 8.35405C105.617 7.00951 107.577 6.27486 109.602 6.29585C113.733 6.29585 115.27 8.3137 115.27 12.7479V18.9074H111.556V17.6059H111.485C110.864 18.6148 109.449 19.2 107.994 19.2C106.041 19.2 103.517 18.2415 103.517 15.3711C103.517 11.8399 107.847 11.2497 111.434 11.2497V11.0529C111.434 9.85231 110.467 9.28731 109.205 9.28731C108.068 9.32173 106.982 9.7666 106.153 10.5384L104.112 8.35405ZM111.556 13.5803H111.047C109.266 13.5803 107.262 13.8023 107.262 15.2501C107.262 16.1833 108.203 16.5011 109.017 16.5011C110.65 16.5011 111.561 15.5174 111.561 13.9788L111.556 13.5803Z" fill="#0A0A0A"/>
<path d="M127.12 18.9075V17.3083H127.069C126.28 18.5392 124.672 19.2505 123.039 19.2505C119.325 19.2505 117.173 16.1582 117.173 12.748C117.173 9.33783 119.401 6.34637 122.988 6.34637C123.698 6.33112 124.403 6.47049 125.052 6.75464C125.702 7.03879 126.281 7.4608 126.748 7.99092H126.799V0.358398H130.869V18.9075H127.12ZM124.001 9.63042C122.072 9.63042 121.085 11.1791 121.085 12.748C121.085 14.3169 122.072 15.911 124.001 15.911C124.404 15.9006 124.802 15.8109 125.17 15.6472C125.539 15.4834 125.871 15.2488 126.147 14.957C126.423 14.6652 126.638 14.3219 126.78 13.9471C126.922 13.5722 126.987 13.1732 126.972 12.7732C126.988 12.3728 126.923 11.9733 126.782 11.5978C126.64 11.2224 126.425 10.8785 126.149 10.5862C125.872 10.2938 125.54 10.0588 125.171 9.8947C124.803 9.73064 124.405 9.64081 124.001 9.63042Z" fill="#0A0A0A"/>
<path d="M139.788 19.2957C136.074 19.2957 132.96 16.7734 132.96 12.7377C132.96 8.70202 136.074 6.28564 139.788 6.28564C143.502 6.28564 146.642 8.73733 146.642 12.7377C146.642 16.7381 143.523 19.2957 139.788 19.2957ZM139.788 9.63023C137.88 9.63023 136.893 11.1789 136.893 12.7478C136.893 14.3167 137.911 15.9108 139.814 15.9108C141.717 15.9108 142.734 14.3167 142.734 12.7478C142.734 11.1789 141.691 9.63023 139.788 9.63023Z" fill="#0A0A0A"/>
<path d="M153.144 9.70619V14.3674C153.144 15.4974 153.515 16.0826 154.67 16.0826C155.076 16.0872 155.479 16.0206 155.861 15.8859L155.912 18.8319C155.152 19.0754 154.359 19.1996 153.561 19.2002C150.269 19.2002 149.18 17.4598 149.18 14.8567V9.70619H147.201V6.67941H149.155V3.47607H153.144V6.6895H156.039V9.71628L153.144 9.70619Z" fill="#0A0A0A"/>
<path d="M65.0174 46.113H63.2367V30.3132H57.3755V28.7544H70.8837V30.3233H65.0174V46.113Z" fill="#0A0A0A"/>
<path d="M81.0493 40.8163H71.4537C71.4577 41.9246 71.9053 42.9859 72.698 43.7672C73.4908 44.5485 74.5639 44.9859 75.6817 44.9832C76.4195 44.9888 77.1468 44.8096 77.7961 44.4621C78.4454 44.1147 78.9956 43.6102 79.3958 42.9956L80.6576 44.0045C80.0812 44.7693 79.329 45.3866 78.4635 45.8052C77.5981 46.2237 76.6444 46.4313 75.6817 46.4108C74.8818 46.4252 74.0874 46.2774 73.3471 45.9766C72.6069 45.6759 71.9363 45.2284 71.3766 44.6616C70.8169 44.0949 70.3798 43.4208 70.0921 42.6806C69.8044 41.9405 69.6722 41.1499 69.7035 40.3573C69.7035 36.8966 72.2474 34.3037 75.5443 34.3037C79.1821 34.3037 81.085 36.8512 81.085 39.994C81.0748 40.2513 81.0748 40.5187 81.0493 40.8163ZM79.3704 39.4896C79.2686 37.3305 77.9356 35.7364 75.5341 35.7364C74.5047 35.7421 73.5149 36.1311 72.7611 36.8262C72.0072 37.5214 71.5442 38.472 71.4639 39.4896H79.3704Z" fill="#0A0A0A"/>
<path d="M92.5325 37.2546C92.202 36.7784 91.7576 36.3909 91.2391 36.1268C90.7206 35.8627 90.1441 35.7302 89.5612 35.7412C86.8647 35.7412 85.1348 37.759 85.1348 40.3772C85.1348 42.9953 86.8392 44.988 89.5358 44.988C90.1446 45.0091 90.7495 44.8823 91.2975 44.6185C91.8456 44.3547 92.3202 43.962 92.6801 43.4746L93.9419 44.4028C93.4181 45.0545 92.7477 45.5755 91.9843 45.9241C91.221 46.2728 90.3859 46.4394 89.546 46.4105C85.8115 46.4105 83.3643 43.8378 83.3643 40.357C83.3643 36.8762 85.8115 34.3034 89.546 34.3034C90.3698 34.296 91.1845 34.4737 91.9291 34.8232C92.6737 35.1727 93.3288 35.6849 93.8452 36.3213L92.5325 37.2546Z" fill="#0A0A0A"/>
<path d="M97.8493 36.518C98.47 35.1963 100.103 34.3387 101.736 34.3387C104.677 34.3387 106.137 36.2254 106.137 39.0706V46.1331H104.458V39.7567C104.458 37.3554 103.741 35.721 101.314 35.721C99.5333 35.721 97.8035 37.1435 97.8035 40.2107V46.1129H96.1194V27.5688H97.8035V36.518H97.8493Z" fill="#0A0A0A"/>
<path d="M111.51 34.6315C111.556 35.2469 111.607 36.1045 111.607 36.5938H111.658C112.299 35.2721 113.983 34.3389 115.616 34.3389C118.557 34.3389 120.017 36.2256 120.017 39.0707V46.1332H118.338V39.7568C118.338 37.3556 117.621 35.7211 115.194 35.7211C113.413 35.7211 111.683 37.1437 111.683 40.2108V46.113H109.999V37.1588C109.999 36.5434 109.999 35.4184 109.902 34.6365L111.51 34.6315Z" fill="#0A0A0A"/>
<path d="M129.2 46.4107C128.359 46.4789 127.513 46.3736 126.716 46.1014C125.918 45.8291 125.185 45.3959 124.565 44.829C123.945 44.2621 123.449 43.5738 123.111 42.8076C122.772 42.0414 122.597 41.2139 122.597 40.3773C122.597 39.5407 122.772 38.7132 123.111 37.947C123.449 37.1808 123.945 36.4925 124.565 35.9256C125.185 35.3587 125.918 34.9254 126.716 34.6532C127.513 34.381 128.359 34.2757 129.2 34.3439C132.813 34.3439 135.382 36.9167 135.382 40.3975C135.382 43.8783 132.792 46.4107 129.2 46.4107ZM129.2 35.7413C126.524 35.7413 124.82 37.7995 124.82 40.3773C124.82 42.9551 126.524 44.9881 129.2 44.9881C131.877 44.9881 133.601 42.9702 133.601 40.3773C133.601 37.7843 131.897 35.7362 129.2 35.7362V35.7413Z" fill="#0A0A0A"/>
<path d="M140.231 46.1129H138.552V27.5688H140.231V46.1129Z" fill="#0A0A0A"/>
<path d="M149.582 46.4107C148.742 46.4789 147.895 46.3736 147.098 46.1014C146.3 45.8291 145.568 45.3959 144.947 44.829C144.327 44.2621 143.831 43.5738 143.493 42.8076C143.154 42.0414 142.979 41.2139 142.979 40.3773C142.979 39.5407 143.154 38.7132 143.493 37.947C143.831 37.1808 144.327 36.4925 144.947 35.9256C145.568 35.3587 146.3 34.9254 147.098 34.6532C147.895 34.381 148.742 34.2757 149.582 34.3439C153.195 34.3439 155.764 36.9167 155.764 40.3975C155.764 43.8783 153.175 46.4107 149.582 46.4107ZM149.582 35.7413C146.911 35.7413 145.202 37.7995 145.202 40.3773C145.202 42.9551 146.911 44.9881 149.582 44.9881C152.254 44.9881 153.983 42.9702 153.983 40.3773C153.983 37.7843 152.259 35.7362 149.582 35.7362V35.7413Z" fill="#0A0A0A"/>
<path d="M159.483 48.4284C160.024 49.0756 160.7 49.5991 161.464 49.9631C162.228 50.3271 163.062 50.5229 163.91 50.537C167.227 50.537 168.438 48.5192 168.438 46.0271V43.8579H168.407C167.919 44.5597 167.265 45.1321 166.502 45.5252C165.74 45.9183 164.891 46.1201 164.032 46.1129C160.419 46.1129 158.043 43.636 158.043 40.2763C158.019 39.4899 158.157 38.7069 158.449 37.9754C158.741 37.244 159.181 36.5796 159.742 36.0233C160.303 35.467 160.973 35.0305 161.711 34.7408C162.449 34.4511 163.239 34.3142 164.032 34.3387C164.895 34.328 165.747 34.531 166.511 34.9291C167.275 35.3272 167.927 35.908 168.407 36.6189H168.458V34.6313H170.142V46.017C170.142 48.5394 168.977 52 163.859 52C162.822 52.002 161.796 51.7992 160.839 51.4034C159.883 51.0075 159.015 50.4266 158.288 49.6946L159.483 48.4284ZM164.184 44.7004C164.78 44.7236 165.373 44.6236 165.927 44.4067C166.481 44.1899 166.984 43.861 167.403 43.441C167.821 43.021 168.147 42.5191 168.36 41.9672C168.572 41.4154 168.666 40.8258 168.636 40.2359C168.646 39.6499 168.539 39.0678 168.319 38.5235C168.1 37.9792 167.774 37.4836 167.36 37.0657C166.945 36.6477 166.451 36.3158 165.906 36.0893C165.361 35.8627 164.775 35.7461 164.184 35.7462C161.386 35.7462 159.804 37.8296 159.804 40.2359C159.804 42.6422 161.386 44.6903 164.184 44.6903V44.7004Z" fill="#0A0A0A"/>
<path d="M174.869 31.3929C174.632 31.3969 174.4 31.331 174.201 31.2035C174.003 31.0761 173.847 30.8928 173.754 30.6772C173.661 30.4616 173.635 30.2234 173.679 29.993C173.723 29.7625 173.835 29.5503 174.001 29.3834C174.167 29.2165 174.38 29.1024 174.612 29.0558C174.844 29.0092 175.084 29.0321 175.303 29.1216C175.521 29.2111 175.708 29.3631 175.839 29.5583C175.971 29.7535 176.04 29.983 176.039 30.2175C176.035 30.5255 175.911 30.82 175.693 31.0392C175.475 31.2583 175.179 31.3851 174.869 31.3929ZM175.713 46.1132H174.029V34.6316H175.713V46.1132Z" fill="#0A0A0A"/>
<path d="M190.209 40.8163H180.618C180.622 41.9246 181.07 42.9859 181.862 43.7672C182.655 44.5485 183.728 44.9859 184.846 44.9832C185.584 44.9888 186.311 44.8096 186.961 44.4621C187.61 44.1147 188.16 43.6102 188.56 42.9956L189.822 44.0045C189.245 44.77 188.492 45.3878 187.626 45.8063C186.759 46.2249 185.805 46.4321 184.841 46.4108C184.04 46.4265 183.245 46.2798 182.503 45.9797C181.762 45.6795 181.09 45.2323 180.529 44.6653C179.968 44.0984 179.53 43.4239 179.242 42.683C178.954 41.9422 178.821 41.1507 178.853 40.3573C178.853 36.8966 181.397 34.3037 184.693 34.3037C188.331 34.3037 190.234 36.8512 190.234 39.994C190.234 40.2513 190.234 40.5187 190.209 40.8163ZM188.53 39.4896C188.428 37.3305 187.095 35.7364 184.693 35.7364C183.664 35.7421 182.674 36.1311 181.92 36.8262C181.167 37.5214 180.704 38.472 180.623 39.4896H188.53Z" fill="#0A0A0A"/>
<path d="M199.515 37.3557C199.237 36.8521 198.825 36.4343 198.323 36.1485C197.821 35.8627 197.249 35.7201 196.67 35.7364C195.454 35.7364 194.218 36.2408 194.218 37.5272C194.218 38.6068 195.083 39.0961 196.991 39.4896C199.713 40.0546 201 41.0585 201 42.8493C201 45.4725 198.772 46.3805 196.645 46.3805C195.756 46.4111 194.872 46.2236 194.074 45.8346C193.275 45.4457 192.585 44.8673 192.066 44.1508L193.404 43.1671C193.744 43.7107 194.217 44.1601 194.779 44.4733C195.341 44.7865 195.975 44.9532 196.62 44.958C198.054 44.958 199.342 44.4535 199.342 42.9401C199.342 41.7344 198.131 41.2451 195.928 40.7306C194.564 40.4128 192.61 39.8225 192.61 37.6382C192.61 35.3076 194.645 34.3037 196.742 34.3037C198.349 34.3037 200.059 35.0604 200.812 36.3619L199.515 37.3557Z" fill="#0A0A0A"/>
</svg>
