<svg width="122" height="90" viewBox="0 0 122 90" fill="none" xmlns="http://www.w3.org/2000/svg">
<path d="M121.207 45.4902C120.703 46.4952 119.839 46.7824 118.76 46.7824C115.233 46.7465 111.742 46.7465 108.215 46.7824C107.783 46.7824 107.172 47.0336 106.992 47.3567C101.881 56.0072 95.1877 63.2579 87.7742 69.9342C79.9289 76.9695 71.6157 83.3946 62.5108 88.7429C61.7551 89.1736 61.1433 89.2454 60.4235 88.8506C58.3362 87.666 56.1769 86.5533 54.1976 85.2252C43.0774 77.5797 32.7849 69.001 23.8959 58.8429C21.3768 55.9713 19.2175 52.8126 16.9503 49.7616C16.5544 49.2232 16.1585 49.0078 15.5107 49.0437C11.4441 49.0796 7.3775 49.0437 3.31088 49.0437C3.13094 49.0437 2.91501 49.0437 2.73507 49.0437C0.935682 49.0437 0 48.3976 0 47.1413C0 45.885 0.863707 45.2748 2.73507 45.2748C6.51379 45.2748 10.2925 45.2748 14.1072 45.2748C13.2075 42.9417 12.2359 40.7162 11.5161 38.3831C7.6654 26.1431 10.7963 13.9749 21.1968 6.07818C28.1065 0.837602 35.8798 -0.275122 44.193 1.69907C49.8431 3.06305 55.0613 5.43208 59.9197 8.55489C60.7834 9.0933 61.3232 9.0933 62.2229 8.59078C67.693 5.25261 73.4511 2.52464 79.7849 1.30423C97.5989 -2.03394 110.698 11.57 112.066 25.3176C112.606 30.7735 111.706 35.9423 109.799 41.0393C109.547 41.6854 109.295 42.3315 108.971 43.1929C110.626 43.1929 112.174 43.1929 113.685 43.1929C115.269 43.1929 116.852 43.2288 118.4 43.1929C119.551 43.157 120.487 43.4801 121.207 44.3774C121.207 44.7005 121.207 45.0953 121.207 45.4902ZM81.7283 40.6444C83.0238 38.742 84.1395 37.0909 85.2911 35.4398C86.5147 33.6809 88.0621 33.7168 89.1778 35.5833C90.5093 37.8088 91.8408 40.0342 93.1004 42.2956C93.4243 42.8699 93.7842 43.1211 94.468 43.1211C97.6349 43.0853 100.766 43.0853 103.933 43.1211C104.545 43.1211 104.904 42.9776 105.192 42.3674C106.956 38.419 108.179 34.3629 108.467 30.0197C109.583 14.4057 95.8355 2.09391 80.4327 5.07314C73.9909 6.32944 68.2329 9.20099 62.7987 12.7904C61.6831 13.5083 60.8194 13.5442 59.6678 12.8622C56.6448 11.1034 53.6218 9.34456 50.4549 7.837C45.5605 5.50387 40.3783 4.13988 34.8722 4.6783C23.0682 5.82692 13.8913 16.0927 13.8553 27.9737C13.8553 33.8604 15.5467 39.2805 18.2818 44.4133C18.4617 44.7723 19.1455 44.9877 19.6133 45.0235C24.9755 45.0594 30.3377 45.0236 35.6999 45.0594C36.5996 45.0594 37.0314 44.7364 37.3913 43.9826C39.0108 40.7162 40.7022 37.4498 42.3576 34.2194C43.5092 31.958 44.6609 29.6608 45.8485 27.3994C46.4243 26.2867 47.6119 25.856 48.5115 26.538C48.9794 26.8969 49.3033 27.5071 49.5552 28.0455C53.154 37.1627 56.7528 46.3158 60.3515 55.4688C60.4955 55.8636 60.6754 56.2585 60.9273 56.8328C61.1073 56.2944 61.2152 55.9713 61.3232 55.6483C64.7061 44.0185 68.0889 32.4246 71.4358 20.7949C71.7597 19.718 72.2275 18.8207 73.4511 18.8207C74.6387 18.8207 75.2145 19.6103 75.5384 20.7231C76.546 24.0612 77.5897 27.3994 78.5973 30.7376C79.641 33.9681 80.6486 37.1986 81.7283 40.6444ZM21.2688 48.9719C21.1608 49.1155 21.0888 49.2591 20.9809 49.4386C23.9319 52.9562 26.7749 56.5815 29.9059 59.9556C38.9388 69.5394 49.3393 77.5079 60.3875 84.6868C60.9993 85.0817 61.4312 85.0817 62.043 84.6509C69.7084 79.6616 77.0499 74.2416 83.9235 68.2113C90.7612 62.2169 96.9871 55.6842 101.917 48.0028C102.133 47.6797 102.313 47.3208 102.601 46.7824C99.3983 46.7824 96.4473 46.7106 93.4963 46.8183C91.8408 46.8901 90.8692 46.2799 90.1134 44.8441C89.1778 43.0494 88.0621 41.3623 86.9825 39.4958C85.507 41.6136 84.1755 43.5878 82.8079 45.5979C82.3041 46.3516 81.6563 46.8901 80.6486 46.7824C79.641 46.6388 79.2091 45.9209 78.9572 45.0594C78.2735 42.834 77.5897 40.6444 76.9059 38.419C75.7903 34.8654 74.7107 31.3119 73.5231 27.4712C73.3431 28.0814 73.1992 28.4404 73.0912 28.7993C70.4281 37.8806 67.765 46.9618 65.1019 56.0431C64.3822 58.448 63.6984 60.853 62.9786 63.2579C62.6907 64.1911 62.1149 64.8013 61.1433 64.8372C60.1716 64.8372 59.5238 64.2988 59.1999 63.4015C59.092 63.1502 59.02 62.8989 58.912 62.6477C55.2053 53.2075 51.5345 43.7672 47.8278 34.3629C47.6478 33.9322 47.4679 33.5374 47.252 32.963C46.9641 33.4656 46.7841 33.8245 46.6042 34.1476C44.4089 38.4908 42.1417 42.7981 39.9824 47.1772C39.3347 48.5412 38.399 49.0437 36.9235 49.0437C32.1011 49.0078 27.3147 49.0078 22.4924 49.0078C22.0965 48.9719 21.6647 48.9719 21.2688 48.9719Z" fill="#EDF0FF"/>
</svg>
